<svg id="Layer_3" enable-background="new 0 0 64 64" height="512" viewBox="0 0 64 64" width="512" xmlns="http://www.w3.org/2000/svg"><g fill="#70ce90"><path d="m59.172 2c1.562 0 2.828 1.266 2.828 2.828 0 .75-.298 1.47-.828 2l-2.343 2.343c-.53.53-1.25.828-2 .828-1.563.001-2.829-1.265-2.829-2.827 0-.75.298-1.47.828-2l2.343-2.343c.531-.531 1.25-.829 2.001-.829z"/><path d="m4.828 59c.75 0 1.47-.298 2-.828l2.343-2.343c.53-.53.828-1.25.828-2 .001-1.563-1.265-2.829-2.827-2.829-.75 0-1.47.298-2 .828l-2.343 2.343c-.53.53-.828 1.25-.828 2-.001 1.563 1.265 2.829 2.827 2.829z"/><path d="m8.828 2c.75 0 1.47.298 2 .828l2.343 2.343c.53.53.828 1.25.828 2 .001 1.563-1.265 2.829-2.827 2.829-.75 0-1.47-.298-2-.828l-2.344-2.344c-.53-.53-.828-1.249-.828-2 0-1.562 1.266-2.828 2.828-2.828z"/><path d="m42 36c1.95 3.25 4.875 5.804 8.359 7.297l6.449 2.764c1.33.57 2.192 1.877 2.192 3.323 0 1.997-1.619 3.616-3.616 3.616h-.449c-1.209 0-2.338-.604-3.009-1.61-1.929-2.893-4.452-5.343-7.401-7.186l-2.176-1.36c-.79-.494-1.817-.377-2.475.282-.536.536-.723 1.329-.483 2.048l.265.795c.89 2.67 2.205 5.18 3.894 7.432.292.389.45.863.45 1.35 0 1.243-1.007 2.25-2.25 2.25h-.128c-.968 0-1.828-.62-2.135-1.538l-2.957-8.872c-.317-.951-1.205-1.591-2.205-1.591-1.284 0-2.325 1.041-2.325 2.325v11.175c0 1.933-1.567 3.5-3.5 3.5-1.933 0-3.5-1.567-3.5-3.5v-1.8c0-.462.092-.92.269-1.346l4.032-9.678c.423-1.014.191-2.183-.586-2.96-.977-.977-2.532-1.063-3.611-.2l-7.3 5.84c-.52.417-1.168.644-1.835.644h-.029c-1.624 0-2.94-1.316-2.94-2.94 0-1.236.774-2.341 1.936-2.763l8.225-2.991c.546-.198 1.013-.566 1.335-1.049l.497-.746c.61-.915.61-2.107 0-3.022-.603-.904-1.685-1.363-2.754-1.169l-2.844.517c-4.255.774-8.57 1.163-12.895 1.163-2.485 0-4.5-2.015-4.5-4.5 0-2.485 2.015-4.5 4.5-4.5 2.977 0 5.931.52 8.729 1.538l5.205 1.893c1.036.377 2.13.57 3.233.57.736-.001 1.333-.598 1.333-1.334 0-.42-.198-.815-.533-1.067l-.906-.679c-4.315-3.236-7.817-7.432-10.229-12.256-.218-.437-.332-.919-.332-1.408v-.109c0-1.739 1.409-3.148 3.148-3.148 1.143 0 2.197.62 2.752 1.619l4.1 7.381 3.317 6.633c.418.838 1.274 1.367 2.211 1.367 1.365 0 2.472-1.107 2.472-2.472v-.779c0-.488-.144-.965-.415-1.371l-2.783-4.175c-.523-.785-.802-1.706-.802-2.648 0-1.596.798-3.086 2.126-3.972l.101-.067c.504-.337 1.096-.516 1.703-.516 1.696 0 3.07 1.375 3.07 3.07v8.111c0 1.005.814 1.819 1.818 1.819.719 0 1.37-.423 1.662-1.08l.04-.09c2.268-5.104 6.011-9.412 10.747-12.372l.112-.07c.406-.253.875-.388 1.353-.388h.714c1.411 0 2.554 1.143 2.554 2.554 0 .897-.471 1.728-1.24 2.19l-7.173 4.304c-1.048.629-1.964 1.455-2.697 2.433-1.227 1.635-1.89 3.624-1.89 5.668 0 1.156.578 2.236 1.54 2.877l.103.068c.865.576 1.932.761 2.94.509 1.605-.4 3.254-.603 4.908-.603h1.009c1.381 0 2.5 1.119 2.5 2.5 0 1.381-1.119 2.5-2.5 2.5-2.328 0-4.65-.23-6.932-.686l-1.568-.314z"/></g><circle cx="34" cy="35" fill="#59ac98" r="5"/><path d="m34 38v-2c.551 0 1-.448 1-1h2c0 1.654-1.346 3-3 3z" fill="#fff"/></svg>