<svg id="Layer_3" enable-background="new 0 0 64 64" height="512" viewBox="0 0 64 64" width="512" xmlns="http://www.w3.org/2000/svg"><g fill="#70ce90"><path d="m59.172 2c1.562 0 2.828 1.266 2.828 2.828 0 .75-.298 1.47-.828 2l-2.343 2.343c-.53.53-1.25.828-2 .828-1.563.001-2.829-1.265-2.829-2.827 0-.75.298-1.47.828-2l2.343-2.343c.531-.531 1.25-.829 2.001-.829z"/><path d="m4.828 59c.75 0 1.47-.298 2-.828l2.343-2.343c.53-.53.828-1.25.828-2 .001-1.563-1.265-2.829-2.827-2.829-.75 0-1.47.298-2 .828l-2.343 2.343c-.53.53-.828 1.25-.828 2-.001 1.563 1.265 2.829 2.827 2.829z"/><path d="m8.828 2c.75 0 1.47.298 2 .828l2.343 2.343c.53.53.828 1.25.828 2 .001 1.563-1.265 2.829-2.827 2.829-.75 0-1.47-.298-2-.828l-2.344-2.344c-.53-.53-.828-1.249-.828-2 0-1.562 1.266-2.828 2.828-2.828z"/><path d="m42 36c1.95 3.25 4.875 5.804 8.359 7.297l6.449 2.764c1.33.57 2.192 1.877 2.192 3.323 0 1.997-1.619 3.616-3.616 3.616h-.449c-1.209 0-2.338-.604-3.009-1.61-1.929-2.893-4.452-5.343-7.401-7.186l-2.176-1.36c-.79-.494-1.817-.377-2.475.282-.536.536-.723 1.329-.483 2.048l.265.795c.89 2.67 2.205 5.18 3.894 7.432.292.389.45.863.45 1.35 0 1.243-1.007 2.25-2.25 2.25h-.128c-.968 0-1.828-.62-2.135-1.538l-2.957-8.872c-.317-.951-1.205-1.591-2.205-1.591-1.284 0-2.325 1.041-2.325 2.325v11.175c0 1.933-1.567 3.5-3.5 3.5-1.933 0-3.5-1.567-3.5-3.5v-1.8c0-.462.092-.92.269-1.346l4.032-9.678c.423-1.014.191-2.183-.586-2.96-.977-.977-2.532-1.063-3.611-.2l-7.3 5.84c-.52.417-1.168.644-1.835.644h-.029c-1.624 0-2.94-1.316-2.94-2.94 0-1.236.774-2.341 1.936-2.763l8.225-2.991c.546-.198 1.013-.566 1.335-1.049l.497-.746c.61-.915.61-2.107 0-3.022-.603-.904-1.685-1.363-2.754-1.169l-2.844.517c-4.255.774-8.57 1.163-12.895 1.163-2.485 0-4.5-2.015-4.5-4.5 0-2.485 2.015-4.5 4.5-4.5 2.977 0 5.931.52 8.729 1.538l5.205 1.893c1.036.377 2.13.57 3.233.57.736-.001 1.333-.598 1.333-1.334 0-.42-.198-.815-.533-1.067l-.906-.679c-4.315-3.236-7.817-7.432-10.229-12.256-.218-.437-.332-.919-.332-1.408v-.109c0-1.739 1.409-3.148 3.148-3.148 1.143 0 2.197.62 2.752 1.619l4.1 7.381 3.317 6.633c.418.838 1.274 1.367 2.211 1.367 1.365 0 2.472-1.107 2.472-2.472v-.779c0-.488-.144-.965-.415-1.371l-2.783-4.175c-.523-.785-.802-1.706-.802-2.648 0-1.596.798-3.086 2.126-3.972l.101-.067c.504-.337 1.096-.516 1.703-.516 1.696 0 3.07 1.375 3.07 3.07v8.111c0 1.005.814 1.819 1.818 1.819.719 0 1.37-.423 1.662-1.08l.04-.09c2.268-5.104 6.011-9.412 10.747-12.372l.112-.07c.406-.253.875-.388 1.353-.388h.714c1.411 0 2.554 1.143 2.554 2.554 0 .897-.471 1.728-1.24 2.19l-7.173 4.304c-1.048.629-1.964 1.455-2.697 2.433-1.227 1.635-1.89 3.624-1.89 5.668 0 1.156.578 2.236 1.54 2.877l.103.068c.865.576 1.932.761 2.94.509 1.605-.4 3.254-.603 4.908-.603h1.009c1.381 0 2.5 1.119 2.5 2.5 0 1.381-1.119 2.5-2.5 2.5-2.328 0-4.65-.23-6.932-.686l-1.568-.314z"/></g><circle cx="34" cy="35" fill="#59ac98" r="5"/><path d="m28.5 63c-2.481 0-4.5-2.019-4.5-4.5v-1.8c0-.598.116-1.18.346-1.731l4.033-9.678c.268-.643.122-1.376-.37-1.868-.617-.615-1.597-.672-2.279-.126l-7.299 5.84c-.697.556-1.571.863-2.462.863-2.201 0-3.969-1.768-3.969-3.94 0-1.65 1.042-3.139 2.594-3.703l8.225-2.99c.343-.125.643-.36.845-.664l.497-.746c.387-.581.387-1.331 0-1.912-.381-.573-1.065-.862-1.743-.74l-2.844.518c-4.299.781-8.698 1.177-13.074 1.177-3.033 0-5.5-2.468-5.5-5.5 0-3.033 2.467-5.5 5.5-5.5 3.103 0 6.155.538 9.071 1.598l5.205 1.893c.929.338 1.902.509 2.891.509.184 0 .333-.149.333-.333 0-.104-.05-.204-.133-.266l-.906-.679c-4.417-3.312-8.055-7.673-10.523-12.609-.287-.573-.438-1.215-.438-1.856v-.109c0-2.287 1.861-4.148 4.148-4.148 1.505 0 2.895.817 3.625 2.134l4.101 7.38 3.337 6.672c.251.502.755.814 1.317.814.811 0 1.472-.661 1.472-1.472v-.779c0-.292-.085-.574-.247-.816l-2.783-4.175c-.635-.952-.97-2.059-.97-3.203 0-1.935.961-3.73 2.571-4.804l.101-.067c.67-.448 1.451-.684 2.258-.684 2.244 0 4.07 1.826 4.07 4.07v8.111c0 .452.367.819.818.819.323 0 .617-.191.748-.486 2.397-5.395 6.247-9.826 11.17-12.903l.111-.07c.567-.354 1.218-.541 1.885-.541h.713c1.961 0 3.555 1.594 3.555 3.554 0 1.241-.661 2.408-1.725 3.047l-7.174 4.304c-.941.565-1.753 1.297-2.412 2.175-1.089 1.453-1.689 3.253-1.689 5.069 0 .824.409 1.588 1.094 2.045l.103.068c.628.419 1.409.555 2.144.372 1.683-.421 3.416-.634 5.151-.634h1.008c1.93 0 3.5 1.57 3.5 3.5s-1.57 3.5-3.5 3.5c-2.39 0-4.787-.237-7.126-.705 1.829 2.697 4.363 4.79 7.379 6.083l6.449 2.764c1.7.728 2.798 2.393 2.798 4.242 0 2.545-2.071 4.616-4.616 4.616h-.449c-1.547 0-2.982-.769-3.84-2.056-1.863-2.794-4.251-5.113-7.099-6.893l-2.177-1.36c-.397-.247-.906-.189-1.237.142-.271.27-.363.661-.242 1.023l.265.795c.858 2.574 2.118 4.979 3.745 7.149.419.557.65 1.25.65 1.95 0 1.792-1.458 3.25-3.25 3.25h-.128c-1.401 0-2.64-.893-3.083-2.222l-2.958-8.872c-.181-.542-.685-.906-1.256-.906-.731 0-1.325.594-1.325 1.324v11.176c0 2.481-2.019 4.5-4.5 4.5zm-1.702-22.079c.954 0 1.903.366 2.625 1.088 1.068 1.067 1.383 2.658.802 4.052l-4.033 9.678c-.128.305-.192.629-.192.961v1.8c0 1.379 1.122 2.5 2.5 2.5s2.5-1.121 2.5-2.5v-11.176c0-1.833 1.492-3.324 3.325-3.324 1.433 0 2.701.914 3.154 2.273l2.958 8.872c.169.511.646.855 1.185.855h.128c.689 0 1.25-.561 1.25-1.25 0-.269-.088-.535-.249-.748-1.757-2.343-3.117-4.939-4.043-7.718l-.265-.795c-.362-1.086-.084-2.263.726-3.071.993-.993 2.519-1.169 3.712-.422l2.176 1.36c3.089 1.931 5.681 4.446 7.703 7.479.486.729 1.3 1.165 2.176 1.165h.449c1.442 0 2.615-1.174 2.615-2.616 0-1.047-.623-1.991-1.585-2.404l-6.449-2.764c-3.7-1.586-6.751-4.249-8.823-7.701-.094-.156-.143-.333-.143-.515v-1c0-.3.134-.583.366-.773.231-.189.534-.265.83-.207l1.568.313c2.211.442 4.477.667 6.736.667.827 0 1.5-.673 1.5-1.5s-.673-1.5-1.5-1.5h-1.008c-1.571 0-3.141.193-4.666.575-1.278.319-2.641.084-3.738-.648l-.102-.068c-1.244-.829-1.986-2.215-1.986-3.71 0-2.246.742-4.473 2.09-6.269.815-1.086 1.818-1.991 2.982-2.69l7.173-4.304c.466-.279.755-.789.755-1.332 0-.857-.697-1.554-1.554-1.554h-.713c-.292 0-.577.082-.823.236l-.112.07c-4.585 2.865-8.168 6.991-10.363 11.931-.494 1.106-1.504 1.763-2.617 1.763-1.554 0-2.818-1.264-2.818-2.818v-8.112c0-1.142-.929-2.07-2.07-2.07-.41 0-.807.12-1.148.348l-.101.067c-1.053.702-1.681 1.875-1.681 3.14 0 .748.219 1.472.634 2.093l2.783 4.175c.381.572.583 1.238.583 1.926v.779c0 1.914-1.558 3.472-3.472 3.472-1.324 0-2.514-.736-3.105-1.92l-3.317-6.633-4.08-7.342c-.379-.682-1.099-1.105-1.878-1.105-1.185 0-2.148.963-2.148 2.148v.109c0 .332.079.664.227.96 2.33 4.661 5.765 8.777 9.935 11.904l.906.679c.583.438.932 1.136.932 1.867 0 1.286-1.047 2.333-2.333 2.333-1.222 0-2.425-.212-3.574-.629l-5.205-1.893c-2.697-.981-5.519-1.478-8.388-1.478-1.93 0-3.5 1.57-3.5 3.5s1.57 3.5 3.5 3.5c4.256 0 8.535-.386 12.716-1.146l2.845-.518c1.459-.264 2.94.362 3.764 1.599.836 1.255.836 2.876 0 4.131l-.497.746c-.438.656-1.086 1.165-1.826 1.434l-8.225 2.99c-.764.278-1.277 1.011-1.277 1.824 0 1.07.871 1.94 1.94 1.94.467 0 .897-.151 1.241-.426l7.299-5.84c.683-.545 1.502-.813 2.318-.813z"/><path d="m56.829 11c-2.112 0-3.829-1.717-3.829-3.829 0-1.022.398-1.984 1.122-2.707l2.343-2.343c.723-.723 1.684-1.121 2.706-1.121 2.112 0 3.829 1.717 3.829 3.829 0 1.022-.398 1.984-1.122 2.707l-2.343 2.343c-.723.723-1.684 1.121-2.706 1.121zm2.342-8c-.488 0-.947.19-1.293.536l-2.343 2.343c-.345.345-.535.804-.535 1.292 0 1.009.82 1.829 1.829 1.829.488 0 .947-.19 1.293-.536l2.343-2.343c.345-.345.535-.804.535-1.292 0-1.009-.82-1.829-1.829-1.829z"/><path d="m4.829 60c-2.112 0-3.829-1.718-3.829-3.828 0-1.023.398-1.984 1.122-2.707l2.342-2.344c.724-.723 1.685-1.121 2.707-1.121 2.112 0 3.829 1.718 3.829 3.828 0 1.023-.398 1.984-1.122 2.707l-2.342 2.344c-.724.723-1.685 1.121-2.707 1.121zm2.342-8c-.488 0-.948.19-1.293.535l-2.342 2.344c-.341.341-.536.811-.536 1.293 0 1.008.82 1.828 1.829 1.828.488 0 .948-.19 1.293-.535l2.342-2.344c.341-.341.536-.811.536-1.293 0-1.008-.82-1.828-1.829-1.828z"/><path d="m11.171 11c-1.022 0-1.984-.398-2.707-1.122l-2.342-2.342c-.724-.724-1.122-1.685-1.122-2.707 0-2.112 1.717-3.829 3.829-3.829 1.022 0 1.984.398 2.707 1.122l2.343 2.343c.723.723 1.121 1.684 1.121 2.706 0 2.112-1.717 3.829-3.829 3.829zm-2.342-8c-1.009 0-1.829.82-1.829 1.829 0 .488.19.947.536 1.293l2.343 2.343c.345.345.804.535 1.292.535 1.009 0 1.829-.82 1.829-1.829 0-.488-.19-.947-.536-1.293l-2.343-2.343c-.345-.345-.804-.535-1.292-.535z"/><path d="m34 41c-3.309 0-6-2.691-6-6s2.691-6 6-6 6 2.691 6 6-2.691 6-6 6zm0-10c-2.206 0-4 1.794-4 4s1.794 4 4 4 4-1.794 4-4-1.794-4-4-4z"/><path d="m34 38v-2c.551 0 1-.448 1-1h2c0 1.654-1.346 3-3 3z"/></svg>